<?xml version="1.0" standalone="no"?>
<!DOCTYPE svg PUBLIC "-//W3C//DTD SVG 20010904//EN"
 "http://www.w3.org/TR/2001/REC-SVG-20010904/DTD/svg10.dtd">
<svg version="1.0" xmlns="http://www.w3.org/2000/svg"
 width="400.000000pt" height="396.000000pt" viewBox="0 0 400.000000 396.000000"
 preserveAspectRatio="xMidYMid meet">

<g transform="translate(0.000000,396.000000) scale(0.100000,-0.100000)"
fill="#000000" stroke="none">
<path d="M1920 3760 c29 -7 24 -8 -24 -4 -36 3 -64 0 -72 -7 -8 -6 -27 -9 -43
-6 -15 3 -32 2 -38 -4 -5 -5 -31 -11 -56 -12 -26 -1 -47 -5 -47 -9 0 -5 -8 -8
-19 -8 -31 0 -277 -88 -354 -126 -492 -246 -828 -678 -949 -1219 -29 -132 -36
-449 -14 -604 41 -273 160 -556 332 -788 88 -117 255 -280 379 -367 121 -85
323 -191 433 -227 39 -12 68 -27 65 -32 -3 -6 -1 -7 5 -4 13 9 112 -13 112
-24 0 -5 7 -6 15 -3 8 4 23 3 33 -1 21 -9 58 -15 97 -15 24 0 27 -2 15 -11
-11 -8 5 -9 60 -5 52 3 66 2 45 -4 -19 -6 41 -8 160 -5 195 4 292 18 458 64
279 79 556 247 768 468 241 251 396 550 462 893 31 164 31 473 -1 640 -89 470
-357 871 -767 1147 -176 119 -396 204 -650 255 -103 20 -479 37 -405 18z m0
-66 c0 -17 -24 -29 -40 -19 -8 5 -6 13 6 26 18 20 34 17 34 -7z m116 15 c10
-16 -18 -40 -35 -29 -12 7 -12 11 -2 24 16 19 27 20 37 5z m120 -38 c-22 -21
-46 0 -26 24 10 12 16 13 27 3 12 -10 12 -13 -1 -27z m-352 20 c3 -4 0 -15 -7
-24 -15 -21 -40 -7 -31 16 7 18 29 23 38 8z m473 -18 c5 -13 -25 -26 -38 -17
-6 3 -5 11 2 20 13 16 31 14 36 -3z m-592 -3 c3 -5 2 -16 -2 -24 -11 -20 -38
-3 -30 18 7 18 23 21 32 6z m705 -14 c0 -7 -7 -19 -15 -26 -12 -10 -16 -9 -21
5 -4 10 -1 21 7 26 20 12 29 11 29 -5z m-820 -37 c-6 -10 -17 -16 -25 -13 -18
7 -18 9 -4 35 8 16 13 18 24 9 11 -9 12 -17 5 -31z m937 4 c5 -15 -28 -26 -41
-13 -8 8 -7 14 4 20 17 11 32 8 37 -7z m-519 0 c-10 -2 -26 -2 -35 0 -10 3 -2
5 17 5 19 0 27 -2 18 -5z m-528 -34 c0 -10 -6 -19 -13 -19 -22 0 -27 11 -16
32 12 22 29 15 29 -13z m365 21 c-16 -4 -86 -20 -154 -35 -530 -114 -966 -502
-1155 -1027 -59 -162 -77 -269 -83 -483 -5 -164 -2 -207 16 -314 58 -339 222
-646 472 -886 222 -213 476 -345 794 -414 90 -20 119 -28 80 -24 -74 7 -257
53 -349 87 -209 79 -427 226 -592 399 -396 415 -539 1002 -379 1558 127 440
450 816 867 1008 124 57 306 112 448 134 44 7 66 5 35 -3z m778 -37 c-13 -10
-18 -10 -25 0 -4 7 -1 17 9 24 13 10 18 10 25 0 4 -7 1 -17 -9 -24z m-1250 -9
c11 -11 -5 -34 -23 -34 -13 0 -17 5 -13 20 5 19 23 26 36 14z m1370 -18 c5
-13 -12 -26 -34 -26 -14 0 -11 28 4 33 20 9 25 8 30 -7z m-1476 -42 c7 -20 -8
-36 -25 -25 -14 8 -6 41 9 41 5 0 12 -7 16 -16z m682 -41 c1 -21 6 -23 59 -24
l57 -1 -54 -8 c-74 -11 -81 -7 -80 49 0 35 2 41 9 26 5 -11 9 -30 9 -42z m159
20 l-3 -38 47 -5 c69 -8 73 -23 5 -18 -33 3 -62 10 -66 16 -10 16 -1 82 11 82
5 0 8 -17 6 -37z m-214 11 c10 -25 7 -74 -4 -74 -5 0 -10 16 -10 35 0 47 -18
44 -59 -10 -18 -25 -38 -45 -43 -45 -12 0 -3 14 39 68 35 43 66 54 77 26z
m951 -5 c0 -7 -8 -15 -17 -17 -18 -3 -25 18 -11 32 10 10 28 1 28 -15z m-479
-6 c30 -11 12 -20 -23 -12 -50 11 -73 11 -73 0 0 -6 20 -13 45 -17 25 -3 45
-11 45 -16 0 -9 -34 -5 -84 9 -12 3 -17 1 -14 -8 3 -8 28 -18 56 -23 29 -5 52
-13 52 -18 0 -5 -17 -6 -37 -2 -95 18 -103 26 -83 78 10 27 13 28 56 21 26 -3
53 -9 60 -12z m-642 -11 c2 -4 7 -24 11 -45 l8 -39 -37 3 c-20 2 -40 -1 -44
-7 -4 -6 -17 -13 -29 -16 -17 -5 -23 0 -28 21 -3 14 -8 34 -11 44 -3 9 0 17 6
17 6 0 13 -14 17 -30 11 -57 37 -45 35 17 -1 18 3 33 8 33 6 0 10 -8 10 -18 0
-11 9 -27 20 -37 16 -15 20 -15 25 -3 3 8 1 27 -4 41 -9 24 0 39 13 19z m769
-23 c50 -14 66 -35 18 -24 -27 6 -30 3 -41 -30 -6 -19 -16 -33 -20 -30 -5 3
-5 17 1 32 12 31 5 53 -15 53 -8 0 -18 5 -22 12 -5 7 -1 9 12 6 10 -3 40 -12
67 -19z m-1328 -10 c0 -7 -8 -15 -17 -17 -18 -3 -25 18 -11 32 10 10 28 1 28
-15z m1785 -3 c0 -14 -29 -31 -38 -22 -2 3 -2 12 1 21 8 19 37 20 37 1z
m-1880 -67 c0 -12 -7 -19 -20 -19 -21 0 -24 8 -14 34 8 20 34 9 34 -15z m1978
-6 c2 -8 -6 -13 -22 -13 -17 0 -26 5 -26 16 0 19 41 16 48 -3z m-693 -66 c425
-109 755 -400 916 -809 55 -139 71 -234 74 -433 2 -104 1 -180 -1 -167 -3 12
-8 22 -11 22 -9 0 -167 -112 -175 -124 -4 -6 -10 -27 -13 -46 -11 -63 -20 -69
-56 -34 l-31 31 16 93 c9 52 17 128 17 169 1 42 4 64 6 49 2 -14 15 -38 28
-52 13 -14 30 -34 38 -46 35 -50 14 230 -29 380 -97 337 -351 617 -678 745
-96 38 -222 68 -258 63 -22 -3 -21 -5 18 -46 38 -38 39 -41 15 -34 -14 4 -98
7 -186 6 -139 -1 -173 -4 -257 -27 -186 -49 -335 -134 -475 -270 -260 -252
-372 -611 -298 -957 l13 -65 -101 -102 c-56 -57 -105 -103 -109 -103 -11 0
-54 151 -74 255 -21 116 -21 329 1 450 49 273 181 522 379 713 195 188 402
298 667 352 141 29 424 22 564 -13z m-1375 3 c0 -13 -7 -20 -20 -20 -13 0 -20
7 -20 20 0 13 7 20 20 20 13 0 20 -7 20 -20z m2158 -7 c2 -8 -6 -13 -22 -13
-17 0 -26 5 -26 16 0 19 41 16 48 -3z m-228 -65 c0 -12 10 -32 22 -45 12 -13
16 -23 10 -23 -6 0 -14 5 -17 10 -3 6 -24 10 -46 10 -38 0 -39 1 -39 35 0 33
2 35 35 35 29 0 35 -4 35 -22z m-2020 -8 c0 -11 -7 -20 -15 -20 -8 0 -15 9
-15 20 0 11 7 20 15 20 8 0 15 -9 15 -20z m2330 -5 c0 -8 -9 -15 -20 -15 -11
0 -20 7 -20 15 0 8 9 15 20 15 11 0 20 -7 20 -15z m-2410 -74 c0 -10 -7 -21
-15 -25 -8 -3 -15 -1 -15 3 0 5 -3 16 -6 25 -4 12 0 16 15 16 14 0 21 -6 21
-19z m2490 -12 c0 -15 -4 -19 -16 -15 -9 3 -18 6 -20 6 -2 0 -4 7 -4 15 0 8 9
15 20 15 14 0 20 -7 20 -21z m-269 -27 c18 -16 28 -32 22 -35 -5 -3 -25 9 -43
28 -41 42 -24 47 21 7z m-2297 -49 c4 -9 1 -20 -6 -25 -21 -13 -28 -9 -28 17
0 28 24 34 34 8z m2646 -14 c0 -15 -4 -19 -16 -15 -9 3 -20 6 -25 6 -4 0 -6 7
-3 15 9 24 44 19 44 -6z m-256 -32 c37 -48 32 -57 -9 -17 -19 19 -35 38 -35
42 0 18 20 6 44 -25z m-2459 -57 c0 -8 -8 -16 -17 -18 -13 -2 -18 3 -18 18 0
15 5 20 18 18 9 -2 17 -10 17 -18z m2785 -6 c0 -8 -9 -14 -19 -14 -22 0 -35
15 -27 29 9 13 46 1 46 -15z m-199 -54 c27 0 29 -3 29 -35 0 -33 -2 -35 -35
-35 -32 0 -35 3 -35 29 0 15 -9 40 -20 53 -10 14 -17 28 -13 31 3 4 14 -5 25
-18 13 -17 30 -25 49 -25z m-2648 -29 c5 -22 0 -31 -20 -31 -13 0 -18 31 -6
43 11 12 21 8 26 -12z m2891 3 c17 -7 22 -34 7 -34 -22 0 -39 13 -34 26 6 16
6 16 27 8z m-1258 -64 c104 -21 218 -46 254 -54 36 -8 91 -20 122 -26 l57 -11
61 -99 c44 -72 59 -106 55 -122 -5 -19 1 -27 32 -43 21 -11 39 -27 41 -36 3
-15 -140 -227 -511 -761 l-130 -187 -35 15 c-19 7 -38 14 -41 14 -4 0 -13 -24
-21 -52 -7 -29 -15 -48 -16 -43 -2 6 48 188 110 405 63 217 113 396 111 398
-1 2 -66 -118 -144 -267 l-141 -270 0 -227 0 -227 -33 44 c-30 39 -172 246
-639 926 -76 112 -141 208 -143 215 -4 9 173 302 189 314 7 5 68 13 63 7 -4
-3 23 -28 59 -54 l66 -47 -69 -40 c-37 -22 -121 -68 -186 -102 -65 -34 -115
-66 -110 -70 4 -5 89 -32 188 -60 99 -28 210 -60 246 -71 l65 -19 40 -74 c25
-47 42 -70 46 -62 4 7 53 129 109 272 99 252 101 262 106 354 l4 95 -43 -77
c-24 -43 -85 -159 -137 -259 l-94 -181 -30 49 c-85 135 -135 229 -126 237 10
11 420 235 430 236 3 0 91 -18 195 -40z m-1686 -49 c0 -10 -7 -21 -15 -25 -8
-3 -15 -1 -15 3 0 5 -3 16 -6 25 -4 12 0 16 15 16 14 0 21 -6 21 -19z m3010
-11 c0 -13 -5 -17 -20 -13 -19 5 -26 23 -14 36 11 11 34 -5 34 -23z m-3057
-112 c-8 -15 -31 -8 -36 11 -3 13 1 21 12 23 16 4 33 -20 24 -34z m3104 17 c8
-21 -1 -28 -26 -20 -12 4 -18 12 -14 21 7 19 32 18 40 -1z m-3148 -129 c-7 -8
-15 -5 -25 8 -11 16 -11 22 -1 28 17 11 41 -22 26 -36z m3187 23 c3 -6 2 -15
-3 -20 -14 -14 -43 0 -36 17 6 17 29 19 39 3z m-2963 -88 c9 -9 -11 -101 -26
-116 -6 -7 -7 2 -2 25 11 52 11 74 0 80 -5 2 -14 -14 -19 -38 -5 -23 -13 -42
-17 -42 -11 0 -11 7 1 49 7 25 6 39 -3 49 -10 13 -7 14 23 8 19 -3 38 -10 43
-15z m-254 -25 c9 -10 8 -16 -3 -25 -12 -10 -17 -8 -25 8 -6 11 -11 22 -11 25
0 11 28 6 39 -8z m3071 -48 c12 -47 11 -52 -6 -65 -10 -8 -30 -13 -43 -11 -21
2 -27 12 -38 53 -15 58 -16 71 -5 61 4 -4 12 -26 17 -48 6 -23 17 -44 24 -46
9 -3 11 2 8 14 -17 55 -19 77 -9 70 6 -4 14 -22 18 -41 9 -50 29 -59 21 -9 -4
21 -10 50 -14 63 -4 16 -2 22 4 18 6 -4 17 -30 23 -59z m169 53 c8 -5 11 -16
8 -25 -5 -14 -10 -14 -26 -4 -10 6 -17 18 -14 25 6 15 13 16 32 4z m-3265
-118 c11 -26 -11 -40 -28 -18 -11 15 -11 22 -3 27 18 11 24 10 31 -9z m3300
-18 c-4 -8 -10 -15 -14 -15 -13 0 -32 29 -25 40 10 16 45 -7 39 -25z m-3096
-29 c42 -58 42 -86 3 -86 -16 0 -36 3 -45 6 -28 11 -17 20 19 16 44 -5 45 8 5
58 -31 39 -36 50 -22 50 5 0 23 -20 40 -44z m2921 -64 c1 -26 -4 -44 -11 -46
-40 -13 -68 -15 -68 -7 0 6 16 13 35 17 l35 6 -5 57 c-4 39 -3 50 4 36 5 -11
10 -39 10 -63z m-3142 -30 c-9 -11 -13 -11 -24 4 -9 13 -10 21 -2 31 10 11 14
10 24 -4 10 -13 10 -21 2 -31z m3329 23 c10 -26 -6 -38 -27 -19 -10 9 -16 21
-13 25 8 14 34 10 40 -6z m-3157 -97 c-4 -66 14 -66 21 -1 4 40 8 48 25 48 17
0 20 -8 23 -57 2 -40 -1 -58 -9 -58 -8 0 -10 15 -6 51 5 37 3 49 -6 46 -7 -2
-13 -25 -15 -51 -3 -42 -5 -47 -25 -44 -19 3 -22 10 -25 61 -2 37 1 57 8 57 7
0 10 -19 9 -52z m2976 12 c-3 -5 -24 -10 -46 -10 -21 0 -39 5 -39 10 0 6 21
10 46 10 27 0 43 -4 39 -10z m-3153 -52 c-17 -17 -47 9 -30 29 10 12 13 12 27
-1 11 -12 12 -19 3 -28z m3340 0 c-17 -17 -47 9 -30 29 10 12 13 12 27 -1 11
-12 12 -19 3 -28z m-182 -48 l0 -60 -45 0 -45 0 0 53 c0 30 3 57 7 60 3 4 24
7 45 7 l38 0 0 -60z m-2911 -77 c-1 -47 -3 -59 -8 -38 -6 28 -9 30 -44 27 -22
-2 -37 1 -37 7 0 6 16 11 35 11 32 0 35 2 35 30 0 17 5 30 10 30 6 0 10 -28 9
-67z m-251 34 c7 -8 7 -18 2 -27 -8 -13 -11 -13 -26 2 -9 9 -13 21 -10 27 9
15 21 14 34 -2z m3343 -29 c-10 -11 -15 -9 -27 6 -18 25 4 43 26 21 11 -12 12
-17 1 -27z m-193 -31 c7 -8 8 -31 4 -62 -6 -45 -10 -50 -35 -53 -44 -5 -60 15
-53 66 3 24 8 48 12 53 8 14 60 11 72 -4z m-3139 -61 c14 -17 0 -29 -23 -20
-17 7 -20 16 -9 27 10 11 19 8 32 -7z m3327 3 c3 -6 1 -16 -4 -21 -13 -13 -45
8 -36 23 7 12 31 11 40 -2z m-3071 -51 c3 -24 9 -51 11 -60 3 -10 1 -18 -5
-18 -6 0 -13 23 -17 50 -4 28 -11 53 -17 57 -7 4 -8 -11 -4 -45 7 -64 -8 -70
-17 -7 -4 25 -11 45 -17 45 -11 0 -11 -23 0 -72 5 -22 5 -38 0 -38 -5 0 -9 3
-9 8 -1 4 -5 27 -10 52 -10 54 0 70 45 70 31 0 34 -2 40 -42z m2861 -38 c8 0
14 -5 14 -11 0 -7 -15 -9 -42 -4 -42 6 -43 6 -22 -12 12 -10 30 -23 40 -30 21
-12 16 -15 -39 -27 -33 -8 -27 -26 9 -26 13 0 24 -4 24 -10 0 -12 -7 -12 -49
-4 -43 9 -40 46 4 54 l30 6 -22 14 c-13 9 -23 25 -23 39 0 21 3 23 31 17 17
-3 38 -6 45 -6z m-3100 -49 c-5 -8 -13 -8 -27 0 -17 8 -18 13 -8 25 11 13 14
13 27 0 8 -8 11 -19 8 -25z m3291 23 c9 -23 -11 -38 -26 -20 -13 16 -7 36 10
36 5 0 12 -7 16 -16z m-3017 -95 c14 -56 10 -64 -37 -72 -33 -6 -41 0 -24 19
15 15 0 66 -20 71 -11 3 -19 9 -19 13 0 9 71 29 81 23 4 -1 12 -26 19 -54z
m-251 -18 c13 -8 8 -31 -7 -31 -17 1 -34 19 -28 29 9 13 16 14 35 2z m3246 -1
c4 -6 1 -18 -6 -26 -10 -12 -14 -12 -20 -2 -5 7 -9 19 -9 26 0 15 26 16 35 2z
m-588 -144 c100 -67 101 -69 87 -92 l-15 -22 -64 44 c-34 24 -65 44 -69 44 -3
0 12 -29 33 -64 33 -54 38 -67 27 -81 -11 -16 -18 -16 -89 -3 -42 8 -77 14
-77 13 0 -1 31 -23 69 -50 62 -42 68 -49 58 -66 -7 -11 -15 -19 -20 -19 -12 0
-206 134 -207 143 0 5 8 18 17 31 17 22 18 22 96 9 44 -8 81 -12 83 -10 2 2
-14 36 -37 75 -40 70 -41 72 -25 98 10 14 21 24 25 22 4 -2 53 -34 108 -72z
m-2628 35 c8 -5 11 -16 8 -25 -5 -13 -11 -15 -26 -6 -12 6 -18 16 -15 25 7 17
13 18 33 6z m636 -11 c37 -23 65 -74 65 -119 0 -26 -4 -31 -25 -31 -21 0 -25
5 -25 29 0 46 -34 81 -80 81 -30 0 -43 -6 -59 -26 -31 -40 -27 -71 15 -111 29
-27 35 -38 28 -54 -9 -19 -10 -19 -44 -1 -70 37 -96 133 -53 199 35 53 120 69
178 33z m2548 6 c3 -8 0 -20 -8 -26 -11 -9 -16 -7 -24 8 -6 11 -7 22 -4 26 11
11 31 6 36 -8z m-40 -128 c-4 -8 -33 -11 -33 -4 0 2 -3 11 -6 19 -8 21 29 27
37 7 4 -8 5 -18 2 -22z m-3109 26 c22 -8 20 -34 -2 -34 -24 0 -32 8 -25 26 6
16 6 16 27 8z m768 -101 c74 -76 80 -111 30 -165 -18 -20 -36 -28 -58 -28 -31
0 -33 -2 -40 -45 -7 -50 -13 -54 -39 -25 -15 17 -16 25 -6 62 10 39 9 45 -11
61 -20 17 -22 17 -48 -8 -26 -25 -27 -25 -45 -5 -17 19 -16 21 65 110 45 49
87 90 94 90 6 0 33 -21 58 -47z m2292 -10 c9 -22 -10 -41 -25 -26 -13 13 -5
43 10 43 5 0 12 -8 15 -17z m-3005 -2 c13 -8 8 -31 -7 -31 -17 1 -34 19 -28
29 9 13 16 14 35 2z m2298 -56 c28 -33 56 -71 62 -84 19 -36 5 -85 -34 -119
-43 -39 -85 -48 -123 -28 -28 14 -132 129 -132 145 0 4 8 15 19 25 17 16 20
14 57 -31 81 -100 105 -112 144 -73 31 31 24 54 -36 125 -55 64 -56 67 -38 86
10 11 21 18 25 17 3 -2 29 -30 56 -63z m-1977 -41 c0 -15 9 -42 21 -60 24 -40
16 -45 -13 -9 -11 14 -30 25 -44 25 -21 0 -24 5 -24 35 0 32 2 35 30 35 26 0
30 -4 30 -26z m2410 -9 c0 -32 -2 -35 -30 -35 -20 0 -35 -8 -46 -25 -9 -14
-20 -22 -26 -19 -5 3 -3 13 6 23 9 10 16 34 16 54 0 36 1 37 40 37 39 0 40 -1
40 -35z m-2670 -11 c0 -8 -9 -14 -20 -14 -19 0 -27 19 -14 33 10 9 34 -4 34
-19z m798 -68 l3 -66 54 31 c50 28 56 29 81 16 l28 -15 -84 -48 c-49 -29 -94
-63 -109 -85 -23 -31 -29 -34 -49 -26 -27 12 -27 18 -2 59 12 20 20 51 20 78
0 25 3 69 7 98 6 51 7 52 27 39 17 -12 22 -26 24 -81z m2092 74 c0 -11 -7 -20
-15 -20 -8 0 -15 2 -15 4 0 2 -3 11 -6 20 -4 12 0 16 15 16 14 0 21 -6 21 -20z
m-896 -66 c4 -9 5 -18 4 -19 -2 -1 -29 -16 -60 -34 -54 -30 -56 -33 -46 -56
l11 -24 57 29 c49 25 59 27 64 14 11 -28 7 -33 -44 -59 -54 -27 -57 -32 -37
-59 13 -17 17 -17 75 13 61 31 61 31 72 10 7 -11 10 -22 8 -24 -19 -17 -172
-84 -178 -78 -5 4 -33 56 -63 114 l-54 106 81 41 c92 46 101 48 110 26z m833
-38 c-4 -9 -11 -16 -16 -16 -15 0 -23 33 -9 41 17 11 32 -5 25 -25z m-2767 -2
c0 -16 -26 -19 -35 -4 -3 6 -4 14 0 20 8 13 35 1 35 -16z m2459 -40 c-18 -18
-36 -31 -41 -27 -6 3 5 20 23 39 18 18 36 31 41 27 6 -3 -5 -20 -23 -39z
m-2129 -38 c0 -6 -16 5 -35 24 -19 18 -32 37 -29 42 6 10 63 -50 64 -66z m685
38 c18 -8 41 -24 51 -35 16 -18 16 -21 2 -35 -14 -15 -19 -14 -54 10 -42 28
-59 32 -70 15 -4 -7 14 -31 45 -59 54 -51 63 -78 36 -117 -33 -47 -119 -36
-175 22 -32 33 -33 36 -18 52 16 15 19 14 53 -15 35 -31 78 -42 90 -22 3 5
-17 31 -44 56 -60 55 -67 90 -25 123 32 25 64 27 109 5z m615 -66 c17 -62 42
-153 44 -155 1 -1 24 4 50 12 53 16 66 13 66 -15 0 -19 -31 -32 -131 -55 -30
-7 -28 -11 -69 140 -12 43 -24 84 -27 91 -4 11 13 20 44 23 7 0 17 -18 23 -41z
m1070 22 c0 -11 -7 -20 -15 -20 -8 0 -15 2 -15 4 0 2 -3 11 -6 20 -4 12 0 16
15 16 14 0 21 -6 21 -20z m-2630 -5 c0 -8 -9 -15 -20 -15 -11 0 -20 7 -20 15
0 8 9 15 20 15 11 0 20 -7 20 -15z m1155 2 c71 -11 80 -15 83 -35 3 -20 -1
-22 -41 -22 l-44 0 -13 -100 -12 -100 -29 0 c-34 0 -34 0 -15 122 14 95 13 98
-40 98 -19 0 -24 5 -24 25 0 29 10 30 135 12z m278 -125 c32 -65 57 -122 57
-125 0 -4 -14 -7 -31 -7 -22 0 -32 5 -36 20 -5 17 -14 20 -68 20 -57 0 -64 -2
-71 -22 -4 -13 -12 -26 -18 -30 -16 -11 -46 -10 -46 2 0 6 21 66 46 135 46
125 46 125 78 125 32 0 34 -3 89 -118z m887 111 c0 -14 -54 -63 -69 -63 -10 0
-3 12 19 35 32 33 50 43 50 28z m-1978 -43 c18 -16 27 -30 21 -30 -7 0 -27 13
-45 30 -18 16 -27 30 -21 30 7 0 27 -13 45 -30z m2211 -30 c4 -15 0 -20 -14
-20 -12 0 -19 7 -19 20 0 11 6 20 14 20 7 0 16 -9 19 -20z m-2473 -5 c0 -9 -9
-15 -25 -15 -18 0 -23 4 -19 15 4 8 15 15 25 15 10 0 19 -7 19 -15z m2117 -39
c-17 -14 -27 -31 -27 -49 0 -24 -4 -27 -35 -27 -34 0 -35 1 -35 40 0 40 0 40
39 40 22 0 44 6 51 15 7 8 17 12 23 8 6 -4 0 -15 -16 -27z m-1725 -6 c25 0 28
-3 28 -35 0 -33 -2 -35 -35 -35 -32 0 -35 3 -35 29 0 16 -7 34 -15 41 -24 20
-17 33 7 16 12 -9 35 -16 50 -16z m1996 -32 c-5 -32 -28 -35 -28 -4 0 17 5 26
16 26 10 0 14 -7 12 -22z m-2308 -8 c0 -13 -7 -20 -20 -20 -13 0 -20 7 -20 20
0 13 7 20 20 20 13 0 20 -7 20 -20z m530 -65 c55 -28 62 -48 32 -85 l-18 -22
-52 26 -52 26 15 36 c8 20 15 38 15 40 0 8 11 4 60 -21z m1304 -12 c14 -29 15
-38 4 -44 -20 -13 -41 -10 -72 10 -38 25 -50 18 -31 -19 17 -33 18 -40 7 -40
-5 0 -16 17 -26 37 -17 35 -17 38 0 50 15 11 24 9 62 -13 l45 -26 -7 25 c-3
14 -9 32 -12 41 -12 32 13 15 30 -21z m396 7 c0 -13 -7 -20 -20 -20 -13 0 -20
7 -20 20 0 13 7 20 20 20 13 0 20 -7 20 -20z m-2143 -6 c5 -14 -35 -26 -43
-13 -8 14 6 30 24 27 8 -2 17 -8 19 -14z m1603 -64 c17 -52 6 -63 -14 -15 -18
42 -20 55 -8 55 5 0 15 -18 22 -40z m-1071 3 c-14 -38 -7 -48 45 -63 25 -7 46
-17 46 -21 0 -5 -1 -9 -3 -9 -11 0 -103 34 -111 40 -10 10 12 80 25 80 5 0 4
-12 -2 -27z m1029 -20 c14 -46 2 -68 -13 -23 -6 19 -16 35 -21 37 -6 2 -21
-19 -34 -47 -13 -27 -27 -50 -32 -50 -12 0 -10 6 17 59 36 72 66 80 83 24z
m490 20 c-5 -26 -38 -29 -38 -4 0 15 6 21 21 21 14 0 19 -5 17 -17z m-1958 -8
c0 -16 -27 -32 -37 -22 -3 4 -3 13 0 22 8 20 37 20 37 0z m680 -35 c14 -7 16
-17 11 -42 -7 -32 -9 -33 -55 -31 -58 2 -78 16 -70 52 4 14 9 30 12 35 5 9 76
0 102 -14z m634 -32 c4 -24 3 -38 -4 -38 -5 0 -10 7 -10 16 0 13 -7 15 -31 10
-17 -3 -38 -6 -45 -6 -8 0 -14 -9 -14 -20 0 -11 -4 -20 -10 -20 -5 0 -10 8
-10 18 0 9 -3 27 -6 40 -4 13 -2 22 5 22 6 0 11 -7 11 -15 0 -13 7 -15 38 -9
48 9 52 11 52 37 0 32 17 8 24 -35z m546 1 c0 -12 -7 -19 -20 -19 -21 0 -24 8
-14 34 8 20 34 9 34 -15z m-1035 10 c24 -6 18 -7 -28 -6 -55 2 -57 1 -57 -24
0 -28 19 -39 73 -39 15 0 27 -4 27 -10 0 -9 -73 -5 -107 6 -13 4 -18 66 -6 77
8 9 60 7 98 -4z m325 1 c0 -5 -15 -10 -34 -10 -49 0 -66 -9 -66 -36 0 -21 5
-23 58 -26 l57 -3 -59 -9 c-66 -10 -78 -2 -74 49 3 31 3 31 106 43 6 1 12 -2
12 -8z m-1050 -16 c0 -10 -7 -14 -22 -12 -32 5 -35 28 -4 28 17 0 26 -5 26
-16z m830 -24 c24 0 40 5 44 15 3 8 10 15 16 15 8 0 8 -6 0 -20 -8 -14 -8 -26
0 -40 6 -11 7 -20 1 -20 -5 0 -11 7 -15 15 -3 10 -19 15 -46 15 -29 0 -40 -4
-40 -15 0 -8 -4 -15 -10 -15 -12 0 -14 73 -2 84 4 4 8 -2 10 -13 3 -17 10 -21
42 -21z m827 -16 c8 -21 -13 -42 -28 -27 -13 13 -5 43 11 43 6 0 13 -7 17 -16z
m-1561 -23 c-10 -16 -33 -14 -39 3 -4 9 1 16 11 19 21 5 36 -8 28 -22z m1447
-17 c17 -6 11 -44 -7 -44 -19 0 -24 9 -19 31 6 21 6 21 26 13z m-1339 -36 c-3
-4 -14 -8 -25 -8 -24 0 -25 27 -1 32 18 4 34 -11 26 -24z m1239 -34 c-6 -15
-33 -20 -33 -5 0 5 3 17 6 25 5 13 10 14 20 6 7 -7 10 -18 7 -26z m-1128 7 c6
-11 -33 -36 -42 -27 -3 3 -3 12 0 21 7 17 33 20 42 6z m1022 -27 c5 -17 -13
-35 -30 -28 -13 5 -14 10 -6 26 10 19 30 21 36 2z m-913 -9 c3 -9 -3 -19 -15
-25 -15 -9 -21 -7 -26 6 -3 9 0 20 8 25 20 12 26 11 33 -6z m359 -2 c-7 -2
-19 -2 -25 0 -7 3 -2 5 12 5 14 0 19 -2 13 -5z m434 -11 c10 -7 10 -12 0 -25
-15 -21 -40 -8 -31 16 7 19 13 20 31 9z m-681 -13 c9 -16 -12 -33 -31 -25 -14
5 -15 9 -5 21 15 18 26 19 36 4z m569 -9 c10 -16 -16 -43 -28 -31 -11 11 -2
41 12 41 5 0 13 -5 16 -10z m-455 -14 c0 -7 -7 -19 -15 -26 -12 -10 -16 -9
-21 5 -4 10 -1 21 7 26 20 12 29 11 29 -5z m336 -25 c-22 -21 -46 0 -26 24 10
12 16 13 27 3 12 -10 12 -13 -1 -27z m-221 19 c4 -6 1 -17 -5 -26 -10 -11 -16
-12 -26 -3 -11 9 -11 15 -3 25 14 17 25 18 34 4z m111 -1 c9 -16 -12 -33 -31
-25 -14 5 -15 9 -5 21 15 18 26 19 36 4z"/>
<path d="M2421 2434 l-124 -120 17 -31 16 -32 72 21 c254 72 419 124 417 133
-1 6 -63 42 -138 80 l-136 70 -124 -121z"/>
<path d="M3450 2015 c0 -25 5 -45 10 -45 6 0 10 20 10 45 0 25 -4 45 -10 45
-5 0 -10 -20 -10 -45z"/>
<path d="M3490 2016 c0 -25 5 -46 10 -46 6 0 10 18 10 39 0 22 -4 43 -10 46
-6 4 -10 -12 -10 -39z"/>
<path d="M3440 1855 c0 -41 2 -45 24 -45 26 0 36 16 36 61 0 26 -4 29 -30 29
-29 0 -30 -2 -30 -45z"/>
<path d="M614 1667 c-8 -23 10 -71 28 -75 14 -3 15 2 4 37 -14 48 -23 59 -32
38z"/>
<path d="M1167 1252 c-34 -36 -34 -46 3 -72 70 -50 108 24 43 83 -19 16 -21
16 -46 -11z"/>
<path d="M2047 866 l-16 -46 40 0 39 0 -21 43 c-12 23 -23 43 -24 45 -2 2 -10
-17 -18 -42z"/>
<path d="M1360 735 c0 -12 79 -44 85 -35 4 6 -9 17 -29 25 -36 15 -56 19 -56
10z"/>
<path d="M1346 701 c-3 -5 6 -14 22 -19 15 -5 35 -13 45 -17 33 -13 17 11 -18
28 -41 20 -42 20 -49 8z"/>
<path d="M1645 613 c-3 -14 -5 -27 -3 -28 5 -4 82 -25 84 -22 7 10 13 57 7 57
-5 0 -25 4 -45 9 -34 8 -37 7 -43 -16z"/>
<path d="M1798 3753 c7 -3 16 -2 19 1 4 3 -2 6 -13 5 -11 0 -14 -3 -6 -6z"/>
</g>
</svg>
